<?xml version="1.0" encoding="UTF-8"?>
<svg version="1.1" xmlns="http://www.w3.org/2000/svg" width="512" height="512">
<path d="M0 0 C0.97838136 -0.01228109 1.95676273 -0.02456217 2.96479201 -0.03721541 C4.03714921 -0.03033888 5.10950641 -0.02346236 6.21435928 -0.01637745 C7.35552712 -0.02473411 8.49669495 -0.03309077 9.67244363 -0.04170066 C13.5109915 -0.06475011 17.34895956 -0.05905497 21.18756485 -0.05344105 C23.93378011 -0.0615854 26.67995861 -0.07563406 29.42615128 -0.08928394 C36.12063634 -0.11866337 42.81497072 -0.12593283 49.50951359 -0.12470844 C54.95177985 -0.12387642 60.39399841 -0.12973189 65.83625412 -0.14033413 C82.94846946 -0.17302475 100.06053805 -0.18199212 117.17278007 -0.17324439 C130.66937987 -0.16726497 144.16561615 -0.19764261 157.66212532 -0.24486711 C171.52079254 -0.29298033 185.37928479 -0.31504107 199.23803735 -0.30955631 C207.01844963 -0.30698028 214.79851391 -0.31495783 222.57885361 -0.35062695 C229.20436093 -0.38076215 235.82933926 -0.38649732 242.45487472 -0.36081793 C245.83462397 -0.34840175 249.21256713 -0.35097037 252.59236526 -0.37652683 C256.25991017 -0.4023805 259.92481802 -0.3850915 263.59228897 -0.35695362 C264.65572328 -0.37461503 265.7191576 -0.39227644 266.81481719 -0.41047305 C273.37580554 -0.30162799 276.79314361 0.96217682 281.44252616 5.65208805 C282.00839869 6.26577468 282.57427123 6.87946131 283.15729141 7.5117445 C284.42044228 8.74146566 285.6874801 9.96721807 286.95988846 11.1873579 C288.28723901 12.50886578 289.61195489 13.83302384 290.93439102 15.15944958 C292.03101059 16.25344067 292.03101059 16.25344067 293.14978409 17.36953259 C295.53890388 19.75429001 297.9243936 22.14263979 300.30963516 24.53127575 C301.97717812 26.19814449 303.64486944 27.86486481 305.31270218 29.5314436 C308.79320591 33.01047835 312.2719075 36.49130236 315.74933243 39.97341442 C320.21386971 44.4436752 324.68291719 48.90939591 329.15330029 53.37380981 C332.5907822 56.80768718 336.02588998 60.24393153 339.46027184 63.68090916 C341.1082303 65.32953581 342.75693497 66.9774169 344.40638924 68.624547 C346.70200011 70.91763027 348.99440147 73.21387369 351.28595352 75.51101208 C352.31366615 76.53568836 352.31366615 76.53568836 353.36214066 77.58106518 C353.98301559 78.20475994 354.60389053 78.8284547 355.24357986 79.47104931 C355.78534331 80.01318978 356.32710676 80.55533026 356.88528728 81.11389923 C359.7195621 84.2285728 359.28560617 87.03537955 359.29151249 91.11855412 C359.29386472 91.80851988 359.29621695 92.49848565 359.29864046 93.20935947 C359.3053503 95.54445344 359.30487164 97.87949202 359.30446243 100.21459484 C359.30775981 101.8963896 359.31148511 103.57818356 359.31560391 105.25997651 C359.32564614 109.89957866 359.32934426 114.53916788 359.33199322 119.17877936 C359.33588963 124.17546469 359.34546832 129.17213971 359.35420609 134.16881847 C359.37398795 146.24374534 359.38403829 158.31867306 359.39293388 170.39361209 C359.39731343 176.07440985 359.40268105 181.75520667 359.40792274 187.43600368 C359.42493575 206.31018092 359.43943157 225.18435757 359.44667149 244.0585413 C359.4485815 248.95879524 359.45050181 253.85904917 359.45245743 258.75930309 C359.45294117 259.97729368 359.45342491 261.19528426 359.45392331 262.45018364 C359.46222978 282.19615499 359.48757678 301.94206587 359.52003811 321.6880108 C359.55306503 341.94243692 359.57111623 362.19683227 359.57431573 382.45128548 C359.57648474 393.8309012 359.58529052 405.21042872 359.6107769 416.59001827 C359.63242422 426.27805497 359.64056381 435.96598206 359.63081012 445.6540402 C359.62624821 450.60033618 359.62826087 455.54640572 359.64757156 460.49267101 C359.66508154 465.01659776 359.66430544 469.54013084 359.64867427 474.06406106 C359.64627958 475.70471236 359.65071712 477.34539005 359.66250292 478.98600076 C359.67748858 481.20890341 359.6680442 483.43038692 359.65227604 485.6532526 C359.65325285 486.89005673 359.65422966 488.12686086 359.65523607 489.40114391 C359.15729141 492.5117445 359.15729141 492.5117445 357.50780934 494.90893996 C354.49505138 496.96332214 352.68941747 497.01294295 349.05401993 497.01510906 C347.79450012 497.02554005 346.53498032 497.03597104 345.23729324 497.04671812 C343.83692575 497.0380696 342.43656055 497.02904297 341.03619766 497.01967907 C339.55066185 497.02428644 338.0651306 497.03063826 336.57960892 497.03858805 C332.49167865 497.05532722 328.40412063 497.04701437 324.31618881 497.03464317 C319.90984414 497.02561367 315.50356465 497.03955194 311.09723282 497.05056286 C302.4629568 497.06837518 293.82881964 497.06449605 285.19453812 497.05291229 C278.17901848 497.0438889 271.16353784 497.04264923 264.14801407 497.04700756 C263.15058087 497.04762049 262.15314768 497.04823343 261.12548923 497.04886493 C259.09939828 497.0501438 257.07330734 497.05144065 255.04721642 497.0527553 C236.03618492 497.06416904 217.02523051 497.05103494 198.01421165 497.02955383 C181.69207463 497.01168213 165.37005138 497.01478602 149.04791641 497.03322887 C130.10620118 497.05462156 111.16455354 497.06307033 92.22282791 497.05077982 C90.20407487 497.04950559 88.18532182 497.0482481 86.16656876 497.04700756 C84.67656341 497.04608191 84.67656341 497.04608191 83.15645695 497.04513755 C76.14711577 497.04167984 69.13781737 497.04752205 62.12848282 497.05692577 C53.58964029 497.06812936 45.0509449 497.06514034 36.51211929 497.0438028 C32.15314 497.03327021 27.79440625 497.02920795 23.43542862 497.04239941 C19.44816193 497.05428372 15.46136932 497.04782687 11.47414589 497.0264892 C10.02871738 497.02200622 8.58324914 497.02432728 7.13784599 497.03399235 C5.17877888 497.04609133 3.21960019 497.03133326 1.2605629 497.01510906 C-0.37429817 497.01413495 -0.37429817 497.01413495 -2.04218674 497.01314116 C-4.84270859 496.5117445 -4.84270859 496.5117445 -7.19270277 494.98667765 C-9.49297401 491.53637616 -9.39474365 488.41792764 -9.34607315 484.40944958 C-9.35188691 483.58210623 -9.35770068 482.75476288 -9.36369061 481.90234852 C-9.37836523 479.11169935 -9.3643708 476.32191947 -9.35064316 473.53127575 C-9.35524912 471.51776712 -9.36159998 469.50426185 -9.36955214 467.49076366 C-9.38631036 461.94346463 -9.37796962 456.39643947 -9.36560726 450.84913921 C-9.3565856 444.87223448 -9.37051213 438.89537803 -9.38152695 432.91848278 C-9.39831676 421.88174381 -9.39681793 410.84508054 -9.38588107 399.80834103 C-9.3758276 389.6132747 -9.37318795 379.41824054 -9.37797165 369.22317028 C-9.37827719 368.54748851 -9.37858273 367.87180674 -9.37889753 367.17564976 C-9.38014284 364.43298968 -9.38141643 361.69032961 -9.38273658 358.94766957 C-9.39497868 333.20778425 -9.3838691 307.46795482 -9.362349 281.72807813 C-9.34336589 258.84864531 -9.34506437 235.96930154 -9.36419296 213.0898695 C-9.38560123 187.39773218 -9.39411055 161.70564426 -9.38174391 136.01349926 C-9.380461 133.27577242 -9.37920964 130.53804557 -9.37797165 127.80031872 C-9.37765534 127.12619698 -9.37733903 126.45207524 -9.37701314 125.75752556 C-9.372459 115.56767486 -9.37779223 105.3778598 -9.38788986 95.18801403 C-9.3993114 83.60425767 -9.39611456 72.02058607 -9.37476689 60.4368391 C-9.36422787 54.52247679 -9.36018312 48.60829556 -9.37336349 42.69393444 C-9.38523423 37.28558813 -9.378813 31.8775917 -9.35745329 26.46927738 C-9.35296458 24.50702735 -9.3553039 22.54474809 -9.36495644 20.58251667 C-9.37702775 17.92593053 -9.3647406 15.27056079 -9.34607315 12.61403942 C-9.35543782 11.84277029 -9.36480248 11.07150116 -9.37445092 10.27686024 C-9.3263485 6.87853174 -9.08178532 4.85393376 -7.11391759 2.0373351 C-4.48340746 0.27039884 -3.14557447 0.00847402 0 0 Z " fill="#F1F1F1" transform="translate(80.84270858764648,7.488255500793457)"/>
<path d="M0 0 C0.73986727 -0.00638882 1.47973454 -0.01277764 2.24202204 -0.01936007 C4.716711 -0.03459874 7.18979597 -0.01415803 9.66442871 0.00622559 C11.44028758 0.00272403 13.21614331 -0.00293495 14.99198914 -0.0105896 C19.81233119 -0.02484227 24.63210312 -0.00777134 29.45239067 0.01569557 C34.49625313 0.03579624 39.54009172 0.02992542 44.58398438 0.02758789 C53.05441699 0.02764147 61.5246266 0.04740347 69.99499512 0.07946777 C79.78860712 0.11636091 89.58192696 0.1251434 99.37559938 0.11817026 C108.79586515 0.1118655 118.2160307 0.12261908 127.63627625 0.14213562 C131.64574104 0.1503114 135.65515464 0.15301883 139.66462708 0.15144348 C144.38592849 0.15056468 149.10695217 0.16477968 153.82818031 0.19067001 C155.56118231 0.19783351 157.29421386 0.19991455 159.0272274 0.19655228 C161.39239519 0.19283876 163.75675188 0.20757984 166.12182617 0.22705078 C166.80811301 0.22172286 167.49439984 0.21639493 168.20148325 0.21090555 C172.47091411 0.27157191 175.15680272 1.02426432 178.56091309 3.62145996 C180.02451258 6.54865894 179.70535518 9.49113056 179.70135498 12.69978333 C179.7043261 13.43708732 179.70729722 14.17439132 179.71035838 14.93403786 C179.71906605 17.41750305 179.72055537 19.90092015 179.7220459 22.38439941 C179.72667263 24.15981144 179.73169709 25.93522246 179.73709106 27.71063232 C179.75023142 32.54333973 179.75666325 37.37603324 179.76110172 42.20875573 C179.76402992 45.22632743 179.76813425 48.2438953 179.7726059 51.26146507 C179.78628537 60.69771886 179.79594972 70.13396395 179.79980779 79.57022697 C179.80428927 90.47223928 179.82183949 101.37412626 179.85080838 112.27610046 C179.87240846 120.69653402 179.88251118 129.11693229 179.88384891 137.53739327 C179.88489817 142.56947052 179.8908317 147.60143002 179.90866852 152.63347816 C179.9251202 157.36699721 179.92731885 162.10030964 179.91852951 166.83384705 C179.91775757 168.57170349 179.92212253 170.30957091 179.93198776 172.04739952 C179.94466294 174.41924226 179.93885499 176.79034835 179.92840576 179.16218567 C179.94049037 180.19468546 179.94049037 180.19468546 179.95281911 181.24804384 C179.90880011 185.51789678 179.23185601 188.25769992 176.56091309 191.62145996 C173.08314014 192.78071761 169.9725768 192.76642562 166.35560608 192.76190186 C165.61674209 192.76487298 164.8778781 192.7678441 164.1166243 192.77090526 C161.63393117 192.7795962 159.15128624 192.78110082 156.6685791 192.78259277 C154.89139706 192.78722058 153.11421602 192.79224519 151.33703613 192.79763794 C146.50445508 192.81076553 141.67188791 192.81720733 136.83929181 192.8216486 C133.82189003 192.8245781 130.80449207 192.82868262 127.78709221 192.83315277 C118.35137784 192.84682722 108.91567217 192.85649474 99.47994858 192.86035466 C88.57793633 192.86483866 77.67604926 192.88240262 66.77407509 192.91135526 C58.35278774 192.93294589 49.93153569 192.9430575 41.51022094 192.94439578 C36.47763157 192.94544548 31.44515987 192.95138845 26.41259956 192.96921539 C21.68071189 192.98565137 16.94903092 192.98787344 12.21712494 192.97907639 C10.47884761 192.97830367 8.74055936 192.98267952 7.0023098 192.99253464 C4.63235923 193.00518514 2.26314849 192.99941552 -0.10679626 192.98895264 C-1.14264214 193.00103724 -1.14264214 193.00103724 -2.19941419 193.01336598 C-5.19094246 192.98239923 -7.20068878 192.75434976 -9.83485508 191.28599167 C-13.09549927 187.90278637 -12.58982343 183.82179528 -12.59298706 179.42288208 C-12.59736931 178.68472366 -12.60175157 177.94656523 -12.60626662 177.18603837 C-12.61965106 174.70568805 -12.62583261 172.22537325 -12.63195801 169.74499512 C-12.63985909 167.96943501 -12.64812804 166.19387651 -12.65673828 164.4183197 C-12.68295185 158.58240288 -12.69826258 152.74647889 -12.71252441 146.91052246 C-12.71788386 144.90254079 -12.72326137 142.89455918 -12.72865677 140.88657761 C-12.75028211 132.53629745 -12.76902038 124.18601923 -12.78027916 115.83571815 C-12.79652979 103.86148706 -12.82973856 91.88757985 -12.88668001 79.91347086 C-12.92534114 71.49726592 -12.94490715 63.08114775 -12.95019972 54.66485631 C-12.95385766 49.63604922 -12.96592631 44.60758763 -12.99830246 39.5788765 C-13.02831675 34.84935051 -13.03471875 30.12038032 -13.0229187 25.3907795 C-13.02269743 23.65451934 -13.03104695 21.91823387 -13.04857254 20.18206215 C-13.0711955 17.81203713 -13.06300342 15.44403943 -13.04708862 13.07400513 C-13.06097071 12.38635405 -13.0748528 11.69870298 -13.08915555 10.99021399 C-13.02970713 7.39922256 -12.45762188 5.64762942 -10.36602974 2.69451714 C-6.8229092 0.18504159 -4.19090973 -0.07644205 0 0 Z " fill="#000101" transform="translate(116.4390869140625,39.3785400390625)"/>
<path d="M0 0 C0.97838136 -0.01228109 1.95676273 -0.02456217 2.96479201 -0.03721541 C4.03714921 -0.03033888 5.10950641 -0.02346236 6.21435928 -0.01637745 C7.35552712 -0.02473411 8.49669495 -0.03309077 9.67244363 -0.04170066 C13.5109915 -0.06475011 17.34895956 -0.05905497 21.18756485 -0.05344105 C23.93378011 -0.0615854 26.67995861 -0.07563406 29.42615128 -0.08928394 C36.12063634 -0.11866337 42.81497072 -0.12593283 49.50951359 -0.12470844 C54.95177985 -0.12387642 60.39399841 -0.12973189 65.83625412 -0.14033413 C82.94846946 -0.17302475 100.06053805 -0.18199212 117.17278007 -0.17324439 C130.66937987 -0.16726497 144.16561615 -0.19764261 157.66212532 -0.24486711 C171.52079254 -0.29298033 185.37928479 -0.31504107 199.23803735 -0.30955631 C207.01844963 -0.30698028 214.79851391 -0.31495783 222.57885361 -0.35062695 C229.20436093 -0.38076215 235.82933926 -0.38649732 242.45487472 -0.36081793 C245.83462397 -0.34840175 249.21256713 -0.35097037 252.59236526 -0.37652683 C256.25991017 -0.4023805 259.92481802 -0.3850915 263.59228897 -0.35695362 C264.65572328 -0.37461503 265.7191576 -0.39227644 266.81481719 -0.41047305 C273.37580554 -0.30162799 276.79314361 0.96217682 281.44252616 5.65208805 C282.00839869 6.26577468 282.57427123 6.87946131 283.15729141 7.5117445 C284.42044228 8.74146566 285.6874801 9.96721807 286.95988846 11.1873579 C288.28723901 12.50886578 289.61195489 13.83302384 290.93439102 15.15944958 C292.03101059 16.25344067 292.03101059 16.25344067 293.14978409 17.36953259 C295.53890388 19.75429001 297.9243936 22.14263979 300.30963516 24.53127575 C301.97717812 26.19814449 303.64486944 27.86486481 305.31270218 29.5314436 C308.79320591 33.01047835 312.2719075 36.49130236 315.74933243 39.97341442 C320.21386971 44.4436752 324.68291719 48.90939591 329.15330029 53.37380981 C332.5907822 56.80768718 336.02588998 60.24393153 339.46027184 63.68090916 C341.1082303 65.32953581 342.75693497 66.9774169 344.40638924 68.624547 C346.70200011 70.91763027 348.99440147 73.21387369 351.28595352 75.51101208 C352.31366615 76.53568836 352.31366615 76.53568836 353.36214066 77.58106518 C353.98301559 78.20475994 354.60389053 78.8284547 355.24357986 79.47104931 C355.78534331 80.01318978 356.32710676 80.55533026 356.88528728 81.11389923 C359.7195621 84.2285728 359.28560617 87.03537955 359.29151249 91.11855412 C359.29386472 91.80851988 359.29621695 92.49848565 359.29864046 93.20935947 C359.3053503 95.54445344 359.30487164 97.87949202 359.30446243 100.21459484 C359.30775981 101.8963896 359.31148511 103.57818356 359.31560391 105.25997651 C359.32564614 109.89957866 359.32934426 114.53916788 359.33199322 119.17877936 C359.33588963 124.17546469 359.34546832 129.17213971 359.35420609 134.16881847 C359.37398795 146.24374534 359.38403829 158.31867306 359.39293388 170.39361209 C359.39731343 176.07440985 359.40268105 181.75520667 359.40792274 187.43600368 C359.42493575 206.31018092 359.43943157 225.18435757 359.44667149 244.0585413 C359.4485815 248.95879524 359.45050181 253.85904917 359.45245743 258.75930309 C359.45294117 259.97729368 359.45342491 261.19528426 359.45392331 262.45018364 C359.46222978 282.19615499 359.48757678 301.94206587 359.52003811 321.6880108 C359.55306503 341.94243692 359.57111623 362.19683227 359.57431573 382.45128548 C359.57648474 393.8309012 359.58529052 405.21042872 359.6107769 416.59001827 C359.63242422 426.27805497 359.64056381 435.96598206 359.63081012 445.6540402 C359.62624821 450.60033618 359.62826087 455.54640572 359.64757156 460.49267101 C359.66508154 465.01659776 359.66430544 469.54013084 359.64867427 474.06406106 C359.64627958 475.70471236 359.65071712 477.34539005 359.66250292 478.98600076 C359.67748858 481.20890341 359.6680442 483.43038692 359.65227604 485.6532526 C359.65325285 486.89005673 359.65422966 488.12686086 359.65523607 489.40114391 C359.15729141 492.5117445 359.15729141 492.5117445 357.50780934 494.90893996 C354.49505138 496.96332214 352.68941747 497.01294295 349.05401993 497.01510906 C347.79450012 497.02554005 346.53498032 497.03597104 345.23729324 497.04671812 C343.83692575 497.0380696 342.43656055 497.02904297 341.03619766 497.01967907 C339.55066185 497.02428644 338.0651306 497.03063826 336.57960892 497.03858805 C332.49167865 497.05532722 328.40412063 497.04701437 324.31618881 497.03464317 C319.90984414 497.02561367 315.50356465 497.03955194 311.09723282 497.05056286 C302.4629568 497.06837518 293.82881964 497.06449605 285.19453812 497.05291229 C278.17901848 497.0438889 271.16353784 497.04264923 264.14801407 497.04700756 C263.15058087 497.04762049 262.15314768 497.04823343 261.12548923 497.04886493 C259.09939828 497.0501438 257.07330734 497.05144065 255.04721642 497.0527553 C236.03618492 497.06416904 217.02523051 497.05103494 198.01421165 497.02955383 C181.69207463 497.01168213 165.37005138 497.01478602 149.04791641 497.03322887 C130.10620118 497.05462156 111.16455354 497.06307033 92.22282791 497.05077982 C90.20407487 497.04950559 88.18532182 497.0482481 86.16656876 497.04700756 C84.67656341 497.04608191 84.67656341 497.04608191 83.15645695 497.04513755 C76.14711577 497.04167984 69.13781737 497.04752205 62.12848282 497.05692577 C53.58964029 497.06812936 45.0509449 497.06514034 36.51211929 497.0438028 C32.15314 497.03327021 27.79440625 497.02920795 23.43542862 497.04239941 C19.44816193 497.05428372 15.46136932 497.04782687 11.47414589 497.0264892 C10.02871738 497.02200622 8.58324914 497.02432728 7.13784599 497.03399235 C5.17877888 497.04609133 3.21960019 497.03133326 1.2605629 497.01510906 C-0.37429817 497.01413495 -0.37429817 497.01413495 -2.04218674 497.01314116 C-4.84270859 496.5117445 -4.84270859 496.5117445 -7.19270277 494.98667765 C-9.49297401 491.53637616 -9.39474365 488.41792764 -9.34607315 484.40944958 C-9.35188691 483.58210623 -9.35770068 482.75476288 -9.36369061 481.90234852 C-9.37836523 479.11169935 -9.3643708 476.32191947 -9.35064316 473.53127575 C-9.35524912 471.51776712 -9.36159998 469.50426185 -9.36955214 467.49076366 C-9.38631036 461.94346463 -9.37796962 456.39643947 -9.36560726 450.84913921 C-9.3565856 444.87223448 -9.37051213 438.89537803 -9.38152695 432.91848278 C-9.39831676 421.88174381 -9.39681793 410.84508054 -9.38588107 399.80834103 C-9.3758276 389.6132747 -9.37318795 379.41824054 -9.37797165 369.22317028 C-9.37827719 368.54748851 -9.37858273 367.87180674 -9.37889753 367.17564976 C-9.38014284 364.43298968 -9.38141643 361.69032961 -9.38273658 358.94766957 C-9.39497868 333.20778425 -9.3838691 307.46795482 -9.362349 281.72807813 C-9.34336589 258.84864531 -9.34506437 235.96930154 -9.36419296 213.0898695 C-9.38560123 187.39773218 -9.39411055 161.70564426 -9.38174391 136.01349926 C-9.380461 133.27577242 -9.37920964 130.53804557 -9.37797165 127.80031872 C-9.37765534 127.12619698 -9.37733903 126.45207524 -9.37701314 125.75752556 C-9.372459 115.56767486 -9.37779223 105.3778598 -9.38788986 95.18801403 C-9.3993114 83.60425767 -9.39611456 72.02058607 -9.37476689 60.4368391 C-9.36422787 54.52247679 -9.36018312 48.60829556 -9.37336349 42.69393444 C-9.38523423 37.28558813 -9.378813 31.8775917 -9.35745329 26.46927738 C-9.35296458 24.50702735 -9.3553039 22.54474809 -9.36495644 20.58251667 C-9.37702775 17.92593053 -9.3647406 15.27056079 -9.34607315 12.61403942 C-9.35543782 11.84277029 -9.36480248 11.07150116 -9.37445092 10.27686024 C-9.3263485 6.87853174 -9.08178532 4.85393376 -7.11391759 2.0373351 C-4.48340746 0.27039884 -3.14557447 0.00847402 0 0 Z M7.15729141 16.5117445 C7.15729141 169.6317445 7.15729141 322.7517445 7.15729141 480.5117445 C118.03729141 480.5117445 228.91729141 480.5117445 343.15729141 480.5117445 C343.15729141 353.7917445 343.15729141 227.0717445 343.15729141 96.5117445 C318.40729141 96.1817445 293.65729141 95.8517445 268.15729141 95.5117445 C265.15729141 93.5117445 265.15729141 93.5117445 264.15729141 90.5117445 C263.66229141 53.8817445 263.66229141 53.8817445 263.15729141 16.5117445 C178.67729141 16.5117445 94.19729141 16.5117445 7.15729141 16.5117445 Z " fill="#000000" transform="translate(80.84270858764648,7.488255500793457)"/>
<path d="M0 0 C1.51895034 3.03790069 2.44290687 5.26586634 3.26171875 8.46484375 C3.49028564 9.33786133 3.71885254 10.21087891 3.9543457 11.11035156 C4.19628662 12.04331055 4.43822754 12.97626953 4.6875 13.9375 C9.18787056 31.87737401 9.18787056 31.87737401 16 49 C16.13263027 51.64999382 16.20989309 54.27808076 16.24609375 56.9296875 C16.27903375 58.5455783 16.31224538 60.16146359 16.34570312 61.77734375 C16.39310596 64.32727236 16.43753356 66.87717882 16.47680664 69.42724609 C16.51656631 71.88663154 16.56810268 74.34555653 16.62109375 76.8046875 C16.6295079 77.5652243 16.63792206 78.32576111 16.64659119 79.10934448 C16.76306045 84.36698865 16.76306045 84.36698865 19 89 C21.06788163 90.24645996 21.06788163 90.24645996 23.94140625 89.7890625 C28.05506175 89.60268329 31.05925783 89.74692636 35 91 C36.47998047 94.36499023 36.47998047 94.36499023 37.09181213 96.38365173 C38.50186623 100.56202239 40.30537501 103.50793059 44 106 C54.29921789 108.70425256 65.58159897 107.77983069 76.14019775 107.49353027 C80.1823177 107.400032 84.22453977 107.39224873 88.26757812 107.37695312 C96.18137393 107.33452619 104.08836301 107.18969181 112 107 C112 112.28 112 117.56 112 123 C93.19 123 74.38 123 55 123 C58.3 127.62 61.6 132.24 65 137 C65.33 137.66 65.66 138.32 66 139 C49.5 139 33 139 16 139 C16 144.28 16 149.56 16 155 C17.89161865 154.94763184 19.7832373 154.89526367 21.73217773 154.84130859 C28.01023865 154.67949444 34.28780344 154.56490853 40.56738186 154.48187828 C44.3718799 154.42987084 48.17410514 154.35945193 51.97729492 154.24560547 C55.65390566 154.13624779 59.32834391 154.07702035 63.00645638 154.05122757 C64.40328227 154.03287081 65.8000004 153.99701871 67.19589043 153.94269943 C78.06916186 153.53674399 78.06916186 153.53674399 82.74710083 157.08184814 C85.053965 159.61630691 87.02459192 162.20216892 89 165 C90.65 166.98 92.3 168.96 94 171 C68.26 171 42.52 171 16 171 C16 176.28 16 181.56 16 187 C17.7707338 186.97002174 17.7707338 186.97002174 19.57723999 186.93943787 C30.72867997 186.75660765 41.87981402 186.62189591 53.03241539 186.53369045 C58.76557488 186.48681663 64.4975199 186.42328967 70.22998047 186.32104492 C75.7673591 186.22290327 81.30357338 186.16936866 86.84175491 186.14610481 C88.94931993 186.12953734 91.05682466 186.09718309 93.16389084 186.04842949 C111.7428786 185.63583403 111.7428786 185.63583403 118.08447266 191.33618164 C119.40749151 192.87563126 120.71405385 194.42945025 122 196 C123.50768208 197.21026524 125.04537544 198.38526529 126.625 199.5 C127.76576834 200.31161384 128.89721351 201.13748542 130 202 C130 202.33 130 202.66 130 203 C92.38 203 54.76 203 16 203 C16 208.28 16 213.56 16 219 C17.67557983 218.96891144 19.35115967 218.93782288 21.07751465 218.90579224 C36.9630932 218.62047529 52.84786413 218.41056262 68.73540497 218.27462959 C76.90115799 218.20288477 85.06498019 218.10535315 93.22949219 217.94384766 C100.35811912 217.80290244 107.48534647 217.71366276 114.61532831 217.68276107 C118.38046612 217.66473531 122.14160583 217.62339583 125.90544128 217.51977921 C145.43155422 217.00305131 159.36028079 219.74521033 175.65707684 231.38218498 C180.80089307 234.93404843 186.49290704 237.50624047 192.125 240.1875 C192.71064728 240.46827393 193.29629456 240.74904785 193.89968872 241.03833008 C217.55615011 252.32967236 242.4013931 260.42838747 268 266 C268 266.33 268 266.66 268 267 C179.56 267 91.12 267 0 267 C0 178.89 0 90.78 0 0 Z " fill="#E2E7F5" transform="translate(88,221)"/>
<path d="M0 0 C52.8 0 105.6 0 160 0 C160 52.8 160 105.6 160 160 C154.72 160 149.44 160 144 160 C143.62875 157.1846875 143.62875 157.1846875 143.25 154.3125 C140.46211057 136.58536862 133.37246429 120.27360263 118.53515625 109.37890625 C115.40955018 107.16828727 112.22445791 105.06325437 109 103 C109.86625 102.01 110.7325 101.02 111.625 100 C122.57501357 87.13889915 127.58626225 75.84209457 127.3125 58.71484375 C126.34629708 47.22910658 119.91106814 35.84494092 111.60546875 27.95703125 C108.23021383 25.42179479 104.69466306 23.47334478 100.9375 21.5625 C100.26477051 21.22009277 99.59204102 20.87768555 98.89892578 20.52490234 C88.1126893 15.34677023 74.87743652 15.34419758 63.625 19.0625 C51.16246597 24.07277551 41.81485855 33.38452455 36.0078125 45.4453125 C30.91450617 58.3562518 31.83738968 72.19385069 37.21875 84.87109375 C40.67376804 91.7907271 45.27867964 96.85081167 51 102 C48.12715736 105.04104186 45.13512121 107.38981801 41.6875 109.75 C28.14577281 119.55607831 20.33802623 133.75365271 17 150 C16.50576583 153.35403362 16.20535007 156.61172386 16 160 C10.72 160 5.44 160 0 160 C0 107.2 0 54.4 0 0 Z " fill="#94EAFB" transform="translate(120,56)"/>
<path d="M0 0 C1.28992355 -0.00554901 2.57984711 -0.01109802 3.90885925 -0.01681519 C7.44006301 -0.03104557 10.97048642 -0.01401989 14.50161552 0.00946999 C18.20017049 0.02960069 21.89869375 0.02369828 25.59729004 0.0213623 C31.80799199 0.02141585 38.01838947 0.0411583 44.22900391 0.07324219 C51.40512854 0.11013413 58.5808544 0.11891753 65.75706148 0.11194468 C72.66570695 0.10563518 79.57421594 0.11640218 86.48283386 0.13591003 C89.42052661 0.14407593 92.35814952 0.14679508 95.29585266 0.1452179 C99.3992621 0.14417419 103.50214772 0.1683704 107.60546875 0.1953125 C109.43219368 0.1909166 109.43219368 0.1909166 111.29582214 0.18643188 C112.41455215 0.19778168 113.53328217 0.20913147 114.68591309 0.2208252 C115.65559776 0.22455391 116.62528244 0.22828262 117.6243515 0.23212433 C120.81111338 0.6879518 122.7085672 1.73792472 125.30273438 3.61523438 C126.55230233 6.11437029 126.44315741 7.83163613 126.46386719 10.62817383 C126.47347473 11.67298416 126.48308228 12.71779449 126.49298096 13.79426575 C126.49935577 15.49421944 126.49935577 15.49421944 126.50585938 17.22851562 C126.51155945 18.39021774 126.51725952 19.55191986 126.52313232 20.74882507 C126.53259233 23.2110401 126.53912026 25.67326785 126.54296875 28.13549805 C126.55266747 31.9017551 126.58367946 35.66746503 126.61523438 39.43359375 C126.62176492 41.82356446 126.62701519 44.21353908 126.63085938 46.60351562 C126.64320618 47.73074539 126.65555298 48.85797516 126.66827393 50.0193634 C126.66527283 51.07363022 126.66227173 52.12789703 126.65917969 53.21411133 C126.66464813 54.60071709 126.66464813 54.60071709 126.67022705 56.01533508 C126.22172464 59.18835369 125.2154652 61.05960431 123.30273438 63.61523438 C120.23295611 64.6384938 118.13517792 64.74584412 114.91969299 64.75567627 C113.24355423 64.76424149 113.24355423 64.76424149 111.53355408 64.77297974 C110.30697586 64.7740976 109.08039764 64.77521545 107.81665039 64.77636719 C105.8797937 64.78381454 105.8797937 64.78381454 103.90380859 64.79141235 C100.36044275 64.8045276 96.81709585 64.81097931 93.27370954 64.81542301 C91.06035371 64.81835446 88.84700305 64.82245935 86.63364983 64.82692719 C79.70957035 64.84059828 72.78550271 64.85026748 65.86141068 64.85412908 C57.86628476 64.85861249 49.87132957 64.876175 41.87625557 64.90512967 C35.69698693 64.92673245 29.51776639 64.93683256 23.33846039 64.93817019 C19.64724567 64.93921901 15.95619154 64.94514317 12.26501656 64.96298981 C8.14930952 64.98250256 4.033961 64.97818718 -0.08178711 64.97167969 C-1.30634109 64.98089447 -2.53089508 64.99010925 -3.79255676 64.99960327 C-4.91280243 64.99403412 -6.0330481 64.98846497 -7.1872406 64.98272705 C-8.64704676 64.98492689 -8.64704676 64.98492689 -10.13634396 64.98717117 C-13.16308884 64.5475803 -14.51369087 63.73069904 -16.69726562 61.61523438 C-17.68976399 58.63773928 -17.84662919 56.60049503 -17.89013672 53.48876953 C-17.91423111 51.92166733 -17.91423111 51.92166733 -17.93881226 50.32290649 C-17.98328905 45.55512174 -18.02430867 40.78747482 -18.04736328 36.01953125 C-18.06394187 33.50348676 -18.09125644 30.98748973 -18.12939453 28.47167969 C-18.18408779 24.84480347 -18.20602484 21.21902962 -18.22070312 17.59179688 C-18.2433725 16.46770416 -18.26604187 15.34361145 -18.28939819 14.18545532 C-18.28654816 13.1344162 -18.28369812 12.08337708 -18.28076172 11.00048828 C-18.28884857 10.07910065 -18.29693542 9.15771301 -18.30526733 8.20840454 C-16.10844464 -1.16119918 -7.82544274 -0.08522692 0 0 Z " fill="#000000" transform="translate(281.697265625,247.384765625)"/>
<path d="M0 0 C1.28992355 -0.00554901 2.57984711 -0.01109802 3.90885925 -0.01681519 C7.44006301 -0.03104557 10.97048642 -0.01401989 14.50161552 0.00946999 C18.20017049 0.02960069 21.89869375 0.02369828 25.59729004 0.0213623 C31.80799199 0.02141585 38.01838947 0.0411583 44.22900391 0.07324219 C51.40512854 0.11013413 58.5808544 0.11891753 65.75706148 0.11194468 C72.66570695 0.10563518 79.57421594 0.11640218 86.48283386 0.13591003 C89.42052661 0.14407593 92.35814952 0.14679508 95.29585266 0.1452179 C99.3992621 0.14417419 103.50214772 0.1683704 107.60546875 0.1953125 C109.43219368 0.1909166 109.43219368 0.1909166 111.29582214 0.18643188 C112.41455215 0.19778168 113.53328217 0.20913147 114.68591309 0.2208252 C115.65559776 0.22455391 116.62528244 0.22828262 117.6243515 0.23212433 C120.81111338 0.6879518 122.7085672 1.73792472 125.30273438 3.61523438 C126.55230233 6.11437029 126.44315741 7.83163613 126.46386719 10.62817383 C126.47347473 11.67298416 126.48308228 12.71779449 126.49298096 13.79426575 C126.49935577 15.49421944 126.49935577 15.49421944 126.50585938 17.22851562 C126.51155945 18.39021774 126.51725952 19.55191986 126.52313232 20.74882507 C126.53259233 23.2110401 126.53912026 25.67326785 126.54296875 28.13549805 C126.55266747 31.9017551 126.58367946 35.66746503 126.61523438 39.43359375 C126.62176492 41.82356446 126.62701519 44.21353908 126.63085938 46.60351562 C126.64320618 47.73074539 126.65555298 48.85797516 126.66827393 50.0193634 C126.66527283 51.07363022 126.66227173 52.12789703 126.65917969 53.21411133 C126.66464813 54.60071709 126.66464813 54.60071709 126.67022705 56.01533508 C126.22172464 59.18835369 125.2154652 61.05960431 123.30273438 63.61523438 C120.23295611 64.6384938 118.13517792 64.74584412 114.91969299 64.75567627 C113.24355423 64.76424149 113.24355423 64.76424149 111.53355408 64.77297974 C110.30697586 64.7740976 109.08039764 64.77521545 107.81665039 64.77636719 C105.8797937 64.78381454 105.8797937 64.78381454 103.90380859 64.79141235 C100.36044275 64.8045276 96.81709585 64.81097931 93.27370954 64.81542301 C91.06035371 64.81835446 88.84700305 64.82245935 86.63364983 64.82692719 C79.70957035 64.84059828 72.78550271 64.85026748 65.86141068 64.85412908 C57.86628476 64.85861249 49.87132957 64.876175 41.87625557 64.90512967 C35.69698693 64.92673245 29.51776639 64.93683256 23.33846039 64.93817019 C19.64724567 64.93921901 15.95619154 64.94514317 12.26501656 64.96298981 C8.14930952 64.98250256 4.033961 64.97818718 -0.08178711 64.97167969 C-1.30634109 64.98089447 -2.53089508 64.99010925 -3.79255676 64.99960327 C-4.91280243 64.99403412 -6.0330481 64.98846497 -7.1872406 64.98272705 C-8.64704676 64.98492689 -8.64704676 64.98492689 -10.13634396 64.98717117 C-13.16308884 64.5475803 -14.51369087 63.73069904 -16.69726562 61.61523438 C-17.68976399 58.63773928 -17.84662919 56.60049503 -17.89013672 53.48876953 C-17.91423111 51.92166733 -17.91423111 51.92166733 -17.93881226 50.32290649 C-17.98328905 45.55512174 -18.02430867 40.78747482 -18.04736328 36.01953125 C-18.06394187 33.50348676 -18.09125644 30.98748973 -18.12939453 28.47167969 C-18.18408779 24.84480347 -18.20602484 21.21902962 -18.22070312 17.59179688 C-18.2433725 16.46770416 -18.26604187 15.34361145 -18.28939819 14.18545532 C-18.28654816 13.1344162 -18.28369812 12.08337708 -18.28076172 11.00048828 C-18.28884857 10.07910065 -18.29693542 9.15771301 -18.30526733 8.20840454 C-16.10844464 -1.16119918 -7.82544274 -0.08522692 0 0 Z " fill="#000000" transform="translate(121.697265625,247.384765625)"/>
<path d="M0 0 C36.96 0 73.92 0 112 0 C112 10.56 112 21.12 112 32 C75.04 32 38.08 32 0 32 C0 21.44 0 10.88 0 0 Z " fill="#79ACF8" transform="translate(280,264)"/>
<path d="M0 0 C36.96 0 73.92 0 112 0 C112 10.56 112 21.12 112 32 C75.04 32 38.08 32 0 32 C0 21.44 0 10.88 0 0 Z " fill="#79ACF8" transform="translate(120,264)"/>
<path d="M0 0 C47.52 0 95.04 0 144 0 C144 5.28 144 10.56 144 16 C96.48 16 48.96 16 0 16 C0 10.72 0 5.44 0 0 Z " fill="#000000" transform="translate(264,424)"/>
<path d="M0 0 C47.52 0 95.04 0 144 0 C144 5.28 144 10.56 144 16 C96.48 16 48.96 16 0 16 C0 10.72 0 5.44 0 0 Z " fill="#000000" transform="translate(104,424)"/>
<path d="M0 0 C47.52 0 95.04 0 144 0 C144 5.28 144 10.56 144 16 C96.48 16 48.96 16 0 16 C0 10.72 0 5.44 0 0 Z " fill="#000000" transform="translate(264,392)"/>
<path d="M0 0 C47.52 0 95.04 0 144 0 C144 5.28 144 10.56 144 16 C96.48 16 48.96 16 0 16 C0 10.72 0 5.44 0 0 Z " fill="#000000" transform="translate(104,392)"/>
<path d="M0 0 C47.52 0 95.04 0 144 0 C144 5.28 144 10.56 144 16 C96.48 16 48.96 16 0 16 C0 10.72 0 5.44 0 0 Z " fill="#000000" transform="translate(264,360)"/>
<path d="M0 0 C47.52 0 95.04 0 144 0 C144 5.28 144 10.56 144 16 C96.48 16 48.96 16 0 16 C0 10.72 0 5.44 0 0 Z " fill="#000000" transform="translate(104,360)"/>
<path d="M0 0 C0.03738281 0.73605469 0.07476562 1.47210938 0.11328125 2.23046875 C0.21189453 3.69419922 0.21189453 3.69419922 0.3125 5.1875 C0.37050781 6.15042969 0.42851562 7.11335937 0.48828125 8.10546875 C1.69648657 14.93966829 6.80699159 19.07997377 11.5625 23.75 C12.24763672 24.43449219 12.93277344 25.11898437 13.63867188 25.82421875 C17.9466875 30.33213113 17.9466875 30.33213113 23.625 32.5 C28.82439528 31.72971922 31.35351245 28.61548001 35 25 C35.97338243 24.06320332 36.94737484 23.12704016 37.921875 22.19140625 C45.26537286 15.05030217 45.26537286 15.05030217 47.5625 5.3125 C47.68818359 3.82169922 47.68818359 3.82169922 47.81640625 2.30078125 C47.87699219 1.54152344 47.93757813 0.78226563 48 0 C56.81109376 2.93180522 62.59784552 10.71598196 67 18.5625 C70.93324479 26.43824428 72 32.20610664 72 41 C40.32 41 8.64 41 -24 41 C-24 27.34622888 -19.43384497 16.19909781 -9.8125 6.4375 C-3.1072 0 -3.1072 0 0 0 Z " fill="#48A8CC" transform="translate(176,175)"/>
<path d="M0 0 C31.68 0 63.36 0 96 0 C96 5.28 96 10.56 96 16 C64.32 16 32.64 16 0 16 C0 10.72 0 5.44 0 0 Z " fill="#000000" transform="translate(312,200)"/>
<path d="M0 0 C31.68 0 63.36 0 96 0 C96 5.28 96 10.56 96 16 C64.32 16 32.64 16 0 16 C0 10.72 0 5.44 0 0 Z " fill="#000000" transform="translate(312,168)"/>
<path d="M0 0 C31.68 0 63.36 0 96 0 C96 5.28 96 10.56 96 16 C64.32 16 32.64 16 0 16 C0 10.72 0 5.44 0 0 Z " fill="#000000" transform="translate(312,136)"/>
<path d="M0 0 C1.90647864 2.85971796 3.18433469 5.69393281 4.51147461 8.85131836 C10.26377077 22.44571747 17.41323265 34.65097141 27.28515625 45.66796875 C29.20797505 48.28282711 29.92429953 49.75497318 30 53 C28.7421875 55.4375 28.7421875 55.4375 26.875 58 C19.6342283 68.81057332 17.30540315 79.30198755 16 92 C10.72 92 5.44 92 0 92 C0 61.64 0 31.28 0 0 Z " fill="#5ED2F1" transform="translate(120,124)"/>
<path d="M0 0 C4.16182413 3.56727783 8.08142389 6.95593094 11.92553711 10.79614258 C13.27614479 12.14202202 13.27614479 12.14202202 14.65403748 13.51509094 C15.61193441 14.47477646 16.56970019 15.4345929 17.52734375 16.39453125 C18.52610445 17.39261718 19.52501346 18.39055473 20.52406311 19.38835144 C22.60238537 21.46520896 24.67891172 23.54384072 26.75415039 25.6237793 C29.41959972 28.29497003 32.08957407 30.96158593 34.76087093 33.62692738 C36.81719739 35.67965301 38.87115204 37.73473846 40.92437935 39.79056358 C41.90888562 40.77573816 42.89413862 41.76016708 43.8801403 42.74384499 C45.24924681 44.11042808 46.61483146 45.48053685 47.98022461 46.85083008 C48.75853134 47.6299324 49.53683807 48.40903473 50.33872986 49.21174622 C52 51 52 51 52 52 C34.84 52 17.68 52 0 52 C0 34.84 0 17.68 0 0 Z " fill="#C7CCEC" transform="translate(360,36)"/>
<path d="M0 0 C1.94326172 0.01933594 1.94326172 0.01933594 3.92578125 0.0390625 C5.28907324 0.07248134 6.65235449 0.10634109 8.015625 0.140625 C9.39450564 0.16069793 10.77341412 0.17894733 12.15234375 0.1953125 C15.52414244 0.24247052 18.89453187 0.30827962 22.265625 0.390625 C21.60046831 9.60137587 19.05671662 18.30356223 12.078125 24.828125 C4.221053 30.60942034 -3.42323641 33.30472398 -13.2265625 32.94921875 C-21.05961599 31.70186168 -27.86706932 27.62755899 -33.734375 22.390625 C-35.5 19.953125 -35.5 19.953125 -36.984375 17.390625 C-37.48453125 16.545 -37.9846875 15.699375 -38.5 14.828125 C-39.61265936 12.63097487 -40.18983881 10.76998406 -40.734375 8.390625 C-40.00323486 8.37604248 -39.27209473 8.36145996 -38.51879883 8.34643555 C-35.19430129 8.2717959 -31.87079033 8.17518699 -28.546875 8.078125 C-27.39638672 8.05556641 -26.24589844 8.03300781 -25.06054688 8.00976562 C-23.94873047 7.97431641 -22.83691406 7.93886719 -21.69140625 7.90234375 C-20.15963745 7.86306763 -20.15963745 7.86306763 -18.59692383 7.82299805 C-14.29515515 7.17323836 -11.69083699 5.48435929 -8.84277344 2.22753906 C-5.88114696 -0.35273857 -3.87960578 -0.06806326 0 0 Z " fill="#F8DEC7" transform="translate(209.734375,119.609375)"/>
<path d="M0 0 C23.76 0 47.52 0 72 0 C72 5.28 72 10.56 72 16 C48.24 16 24.48 16 0 16 C0 10.72 0 5.44 0 0 Z " fill="#000000" transform="translate(288,328)"/>
<path d="M0 0 C23.76 0 47.52 0 72 0 C72 5.28 72 10.56 72 16 C48.24 16 24.48 16 0 16 C0 10.72 0 5.44 0 0 Z " fill="#000000" transform="translate(128,328)"/>
<path d="M0 0 C1.65 1.65 3.3 3.3 5 5 C18.88287797 18.59955393 32.47842519 20.28793012 51.16015625 20.4140625 C52.91850164 20.43279717 54.67683826 20.45237226 56.43516541 20.4727478 C61.03651735 20.52383229 65.63789836 20.56358397 70.23937988 20.60089111 C74.94546561 20.64108015 79.65143288 20.69210414 84.35742188 20.7421875 C93.57153108 20.83866595 102.78570755 20.92315961 112 21 C112 23.64 112 26.28 112 29 C75.04 29 38.08 29 0 29 C0 19.43 0 9.86 0 0 Z " fill="#3279EA" transform="translate(280,267)"/>
<path d="M0 0 C1.65 1.65 3.3 3.3 5 5 C18.88287797 18.59955393 32.47842519 20.28793012 51.16015625 20.4140625 C52.91850164 20.43279717 54.67683826 20.45237226 56.43516541 20.4727478 C61.03651735 20.52383229 65.63789836 20.56358397 70.23937988 20.60089111 C74.94546561 20.64108015 79.65143288 20.69210414 84.35742188 20.7421875 C93.57153108 20.83866595 102.78570755 20.92315961 112 21 C112 23.64 112 26.28 112 29 C75.04 29 38.08 29 0 29 C0 19.43 0 9.86 0 0 Z " fill="#3279EA" transform="translate(120,267)"/>
<path d="M0 0 C8.81109376 2.93180522 14.59784552 10.71598196 19 18.5625 C22.8717397 26.31508938 24.03057105 32.40641468 24 41 C19.14783674 41.15065231 14.29709399 41.25827073 9.44311523 41.32958984 C7.79931878 41.35938095 6.15567568 41.40002971 4.51245117 41.45263672 C-7.34427204 41.82214047 -16.33900969 40.29616265 -27 35 C-27 34.34 -27 33.68 -27 33 C-25.86433594 32.84402344 -24.72867188 32.68804687 -23.55859375 32.52734375 C-17.62125975 31.03941147 -14.1549743 26.88332509 -10.0625 22.5625 C-9.29615234 21.78583984 -8.52980469 21.00917969 -7.74023438 20.20898438 C-2.88152919 15.21256567 -1.01848834 12.36735844 -0.4375 5.3125 C-0.35371094 4.31863281 -0.26992187 3.32476562 -0.18359375 2.30078125 C-0.09271484 1.16189453 -0.09271484 1.16189453 0 0 Z " fill="#4EB3DA" transform="translate(224,175)"/>
<path d="M0 0 C4.77291744 2.62295463 8.68808742 5.73575542 11.6015625 10.4296875 C11.6015625 11.0896875 11.6015625 11.7496875 11.6015625 12.4296875 C10.73466797 12.42332275 9.86777344 12.41695801 8.97460938 12.41040039 C5.72347167 12.4032326 2.474437 12.42753442 -0.77636719 12.47241211 C-2.17669716 12.48546166 -3.57719973 12.48636908 -4.97753906 12.47436523 C-13.27170327 12.17066602 -13.27170327 12.17066602 -20.78320312 15.03491211 C-22.0434409 16.29403265 -23.28419966 17.57303708 -24.50195312 18.87329102 C-28.13165241 21.85209289 -32.43138478 21.16261032 -36.8984375 20.8671875 C-37.81625 20.83560547 -38.7340625 20.80402344 -39.6796875 20.77148438 C-41.92271302 20.6897074 -44.15880257 20.57526377 -46.3984375 20.4296875 C-43.33232977 10.50405503 -38.47962322 4.44443077 -29.3984375 -0.5703125 C-28.3259375 -1.1890625 -27.2534375 -1.8078125 -26.1484375 -2.4453125 C-16.8974505 -5.2206086 -8.65823254 -4.04355451 0 0 Z " fill="#464646" transform="translate(215.3984375,91.5703125)"/>
<path d="M0 0 C10.56 0 21.12 0 32 0 C32 5.28 32 10.56 32 16 C21.44 16 10.88 16 0 16 C0 10.72 0 5.44 0 0 Z " fill="#000000" transform="translate(376,328)"/>
<path d="M0 0 C10.56 0 21.12 0 32 0 C32 5.28 32 10.56 32 16 C21.44 16 10.88 16 0 16 C0 10.72 0 5.44 0 0 Z " fill="#000000" transform="translate(216,328)"/>
<path d="M0 0 C0.03738281 0.73605469 0.07476562 1.47210938 0.11328125 2.23046875 C0.21189453 3.69419922 0.21189453 3.69419922 0.3125 5.1875 C0.39951172 6.63189453 0.39951172 6.63189453 0.48828125 8.10546875 C1.37919578 13.14491657 4.21662083 16.46915489 7.79296875 19.98828125 C8.8612793 21.04692383 8.8612793 21.04692383 9.95117188 22.12695312 C10.68916016 22.84818359 11.42714844 23.56941406 12.1875 24.3125 C12.93708984 25.05306641 13.68667969 25.79363281 14.45898438 26.55664062 C16.30153282 28.37571712 18.14859662 30.18994389 20 32 C17 33 17 33 13.8828125 31.48046875 C12.62219436 30.72943704 11.37003274 29.96409526 10.125 29.1875 C9.13657104 28.58095581 9.13657104 28.58095581 8.12817383 27.9621582 C-10.65227673 16.21790951 -10.65227673 16.21790951 -13 10 C-11.73232923 8.70522938 -10.46073776 7.41429661 -9.1875 6.125 C-8.47980469 5.40570313 -7.77210938 4.68640625 -7.04296875 3.9453125 C-2.89959839 0 -2.89959839 0 0 0 Z " fill="#4EB2D9" transform="translate(176,175)"/>
<path d="M0 0 C5.28 0 10.56 0 16 0 C16.8435518 11.68921776 16.8435518 11.68921776 14.44140625 15.421875 C12.70542754 17.11244582 10.98237446 18.60930363 9 20 C5.07733947 18.09734201 2.57879201 16.65328869 0 13 C-0.43464245 8.57845209 -0.22532662 4.46146712 0 0 Z " fill="#2760BA" transform="translate(192,168)"/>
</svg>
